<svg width="245" height="182" viewBox="0 0 245 182" fill="none" xmlns="http://www.w3.org/2000/svg">
  <path d="M244.256 159.939H0V160.061H244.256V159.939Z" fill="#EBEBEB"/>
  <path d="M115.777 138.151H21.4506C20.7116 138.15 20.0034 137.855 19.4813 137.332C18.9593 136.809 18.6661 136.101 18.6661 135.362V2.76498C18.6725 2.03027 18.9685 1.32777 19.4899 0.81006C20.0113 0.292354 20.7158 0.0012586 21.4506 0H115.777C116.517 0 117.227 0.293883 117.75 0.816997C118.273 1.34011 118.567 2.04961 118.567 2.7894V135.362C118.567 136.102 118.273 136.811 117.75 137.334C117.227 137.857 116.517 138.151 115.777 138.151ZM21.4506 0.0977028C20.744 0.0989968 20.0668 0.380583 19.5677 0.880654C19.0685 1.38072 18.7882 2.05842 18.7882 2.76498V135.362C18.7882 136.068 19.0685 136.746 19.5677 137.246C20.0668 137.746 20.744 138.028 21.4506 138.029H115.777C116.484 138.028 117.162 137.746 117.662 137.246C118.162 136.746 118.443 136.069 118.445 135.362V2.76498C118.443 2.05797 118.162 1.38029 117.662 0.880355C117.162 0.380424 116.484 0.0989941 115.777 0.0977028H21.4506Z" fill="#EBEBEB"/>
  <path d="M221.447 138.151H127.116C126.376 138.15 125.668 137.856 125.145 137.333C124.622 136.81 124.328 136.101 124.326 135.362V2.76498C124.334 2.02982 124.631 1.32732 125.153 0.809754C125.675 0.292183 126.381 0.00124487 127.116 0H221.447C222.181 0.00254246 222.885 0.294206 223.405 0.811774C223.925 1.32934 224.221 2.03111 224.227 2.76498V135.362C224.227 136.1 223.934 136.808 223.413 137.331C222.892 137.854 222.185 138.149 221.447 138.151ZM127.116 0.0977028C126.409 0.0989941 125.731 0.380424 125.231 0.880355C124.731 1.38029 124.45 2.05797 124.448 2.76498V135.362C124.45 136.069 124.731 136.746 125.231 137.246C125.731 137.746 126.409 138.028 127.116 138.029H221.447C222.154 138.028 222.832 137.746 223.332 137.246C223.832 136.746 224.113 136.069 224.115 135.362V2.76498C224.113 2.05797 223.832 1.38029 223.332 0.880355C222.832 0.380424 222.154 0.0989941 221.447 0.0977028H127.116Z" fill="#EBEBEB"/>
  <path d="M219.782 164.589H207.08V164.712H219.782V164.589Z" fill="#EBEBEB"/>
  <path d="M173.925 163.266H147.496V163.388H173.925V163.266Z" fill="#EBEBEB"/>
  <path d="M211.037 169.128H193.739V169.25H211.037V169.128Z" fill="#EBEBEB"/>
  <path d="M37.2002 168.307H25.6273V168.429H37.2002V168.307Z" fill="#EBEBEB"/>
  <path d="M54.1711 168.307H41.548V168.429H54.1711V168.307Z" fill="#EBEBEB"/>
  <path d="M129.524 166.245H102.871V166.368H129.524V166.245Z" fill="#EBEBEB"/>
  <path d="M41.2939 146.881H36.6091V157.902H41.2939V146.881Z" fill="#E0E0E0"/>
  <path d="M48.6216 84.3513H29.2863C29.0003 84.3513 28.7684 84.5831 28.7684 84.8691V150.921C28.7684 151.207 29.0003 151.439 29.2863 151.439H48.6216C48.9076 151.439 49.1394 151.207 49.1394 150.921V84.8691C49.1394 84.5831 48.9076 84.3513 48.6216 84.3513Z" fill="#E6E6E6"/>
  <path d="M43.4776 157.897H34.4254L33.7318 159.939H44.1712L43.4776 157.897Z" fill="#E6E6E6"/>
  <path d="M47.1854 148.967L47.1854 86.8232C47.1854 86.5372 46.9535 86.3054 46.6675 86.3054H31.2403C30.9544 86.3054 30.7225 86.5372 30.7225 86.8232L30.7225 148.967C30.7225 149.253 30.9544 149.485 31.2403 149.485H46.6675C46.9535 149.485 47.1854 149.253 47.1854 148.967Z" fill="#FAFAFA"/>
  <path d="M47.1805 94.7859L30.7176 102.627V96.4273L47.1805 88.5818V94.7859Z" fill="#F0F0F0"/>
  <path d="M47.1805 109.646L30.7176 117.487V111.283L47.1805 103.442V109.646Z" fill="#F0F0F0"/>
  <path d="M47.1805 124.502L30.7176 132.348V126.143L47.1805 118.303V124.502Z" fill="#F0F0F0"/>
  <path d="M47.1805 139.363L30.7176 147.203V141.004L47.1805 133.159V139.363Z" fill="#F0F0F0"/>
  <path d="M207.647 146.881H202.962V157.902H207.647V146.881Z" fill="#E0E0E0"/>
  <path d="M214.975 84.3513H195.639C195.353 84.3513 195.121 84.5831 195.121 84.8691V150.921C195.121 151.207 195.353 151.439 195.639 151.439H214.975C215.261 151.439 215.492 151.207 215.492 150.921V84.8691C215.492 84.5831 215.261 84.3513 214.975 84.3513Z" fill="#E6E6E6"/>
  <path d="M209.831 157.897H200.778L200.085 159.939H210.524L209.831 157.897Z" fill="#E6E6E6"/>
  <path d="M213.538 148.967V86.8232C213.538 86.5373 213.307 86.3054 213.021 86.3054H197.593C197.307 86.3054 197.076 86.5373 197.076 86.8232V148.967C197.076 149.253 197.307 149.485 197.593 149.485H213.021C213.307 149.485 213.538 149.253 213.538 148.967Z" fill="#FAFAFA"/>
  <path d="M213.538 94.7859L197.075 102.627V96.4273L213.538 88.5818V94.7859Z" fill="#F0F0F0"/>
  <path d="M213.538 109.646L197.075 117.487V111.283L213.538 103.442V109.646Z" fill="#F0F0F0"/>
  <path d="M213.538 124.502L197.075 132.348V126.143L213.538 118.303V124.502Z" fill="#F0F0F0"/>
  <path d="M213.538 139.363L197.075 147.203V141.004L213.538 133.159V139.363Z" fill="#F0F0F0"/>
  <path d="M159.514 99.1729H80.1599V105.167H159.514V99.1729Z" fill="#F0F0F0"/>
  <path d="M159.514 105.167H80.1599L72.9593 159.939H155.772L159.514 105.167Z" fill="#F0F0F0"/>
  <path d="M142.079 114.927L142.44 111.078H136.734L136.373 114.927L129.089 150.1H142.719L142.079 114.927Z" fill="#E0E0E0"/>
  <path d="M120.545 114.927L120.907 111.078H115.201L114.835 114.927L107.551 150.1H121.18L120.545 114.927Z" fill="#E0E0E0"/>
  <path d="M99.0116 114.927L99.3731 111.078H93.6673L93.3009 114.927L86.0172 150.1H99.6467L99.0116 114.927Z" fill="#E0E0E0"/>
  <path d="M164.902 105.167V99.1729H159.514V105.167L155.772 159.939H168.644L164.902 105.167Z" fill="#E0E0E0"/>
  <path d="M70.8586 14.8508H28.7684C30.7571 12.6575 33.4356 11.2097 36.3599 10.7473C41.0741 10.1123 39.7453 12.081 39.7453 12.081C39.7453 12.081 43.1014 5.90129 53.9122 5.49094C64.7229 5.08059 56.9605 11.0649 56.9605 11.0649C56.9605 11.0649 61.7235 8.35362 69.2856 8.48064C76.8478 8.60765 70.8586 14.8508 70.8586 14.8508Z" fill="#F5F5F5"/>
  <path d="M142.255 35.9936H105.616C107.348 34.0891 109.678 32.8328 112.221 32.4323C116.325 31.8803 115.152 33.5901 115.152 33.5901C115.152 33.5901 118.083 28.2165 127.482 27.8599C136.881 27.5032 130.135 32.7108 130.135 32.7108C130.135 32.7108 134.277 30.3464 140.882 30.4587C147.487 30.5711 142.255 35.9936 142.255 35.9936Z" fill="#FAFAFA"/>
  <path d="M196.636 19.8922H137.897C139.417 18.087 141.335 16.6582 143.499 15.7175C145.664 14.7768 148.017 14.3497 150.374 14.4697C150.374 14.4697 156.334 5.94028 167.472 5.11469C178.61 4.28911 173.114 12.1444 173.114 12.1444C173.114 12.1444 177.301 6.87333 189.357 7.07851C201.413 7.28368 193.661 13.6783 193.661 13.6783C193.661 13.6783 199.894 12.6475 201.624 15.1438C203.353 17.6401 196.636 19.8922 196.636 19.8922Z" fill="#F5F5F5"/>
  <path d="M122.128 182C174.439 182 216.846 179.524 216.846 176.47C216.846 173.416 174.439 170.94 122.128 170.94C69.8169 170.94 27.4104 173.416 27.4104 176.47C27.4104 179.524 69.8169 182 122.128 182Z" fill="#F5F5F5"/>
  <path d="M159.035 36.8924C156.705 39.8235 152.914 37.2539 153.744 34.5524C154.253 32.8964 160.515 35.0165 159.035 36.8924Z" fill="#263238"/>
  <path d="M167.794 38.2651C166.431 37.4883 161.443 37.5323 160.046 37.5323C158.649 37.5323 156.138 37.2294 155.469 37.8987C154.8 38.5679 156.075 41.9729 156.075 41.9729C156.075 41.9729 162.118 44.6401 164.321 44.6401C166.524 44.6401 169.387 39.1737 167.794 38.2651Z" fill="#407BFF"/>
  <path opacity="0.6" d="M167.794 38.2651C166.431 37.4883 161.443 37.5323 160.046 37.5323C158.649 37.5323 156.138 37.2294 155.469 37.8987C154.8 38.5679 156.075 41.9729 156.075 41.9729C156.075 41.9729 162.118 44.6401 164.321 44.6401C166.524 44.6401 169.387 39.1737 167.794 38.2651Z" fill="black"/>
  <path d="M153.061 168.468H148.469C148.383 168.471 148.301 168.506 148.239 168.565C148.177 168.625 148.139 168.705 148.132 168.791L147.496 173.016C147.477 173.114 147.478 173.215 147.5 173.312C147.522 173.41 147.565 173.501 147.625 173.581C147.685 173.661 147.761 173.727 147.848 173.775C147.935 173.824 148.032 173.853 148.132 173.861C149.734 173.827 150.511 173.72 152.528 173.72C153.769 173.72 157.125 173.871 158.84 173.871C160.554 173.871 160.701 171.917 159.988 171.717C156.807 170.916 154.79 169.812 153.735 168.761C153.648 168.67 153.543 168.597 153.427 168.547C153.311 168.496 153.187 168.47 153.061 168.468Z" fill="#263238"/>
  <path d="M166.456 78.9435C166.456 78.9435 162.709 106.789 161.878 117.819C161.087 128.269 159.924 151.947 158.161 159.343C158.019 159.877 157.701 160.348 157.257 160.678C156.813 161.009 156.271 161.178 155.718 161.16L148.654 161.062C148.311 161.076 147.969 161.016 147.652 160.886C147.334 160.756 147.048 160.559 146.813 160.309C146.578 160.059 146.4 159.761 146.29 159.436C146.181 159.111 146.142 158.766 146.177 158.424C147.374 150.12 149.006 128.659 149.289 118.787C149.661 105.948 148.346 88.6062 152.338 78.9484L166.456 78.9435Z" fill="#407BFF"/>
  <path d="M150.794 161.307C150.391 161.31 149.993 161.227 149.625 161.063C149.257 160.898 148.93 160.657 148.664 160.354C148.43 160.09 148.257 159.779 148.154 159.442C148.052 159.104 148.025 158.749 148.073 158.4C149.294 149.944 150.911 128.166 151.18 118.684C151.273 115.611 151.263 112.333 151.253 108.86C151.229 97.7415 151.199 86.2468 154.253 78.8654L154.712 79.0559C151.693 86.3445 151.722 98.3081 151.751 108.855C151.751 112.328 151.751 115.611 151.678 118.694C151.405 128.186 149.788 149.998 148.566 158.468C148.528 158.75 148.552 159.037 148.637 159.309C148.721 159.581 148.864 159.831 149.055 160.041C149.274 160.289 149.545 160.487 149.847 160.622C150.15 160.757 150.477 160.825 150.809 160.823L150.794 161.307Z" fill="white"/>
  <path d="M147.961 169.939L153.632 170.657L155.723 161.155L148.659 161.057L147.961 169.939Z" fill="#263238"/>
  <path d="M186.724 167.643L182.327 168.874C182.289 168.886 182.253 168.906 182.223 168.933C182.193 168.96 182.168 168.993 182.151 169.029C182.134 169.066 182.125 169.106 182.124 169.146C182.124 169.187 182.131 169.227 182.147 169.264L183.358 173.339C183.417 173.543 183.549 173.718 183.73 173.83C183.91 173.942 184.126 173.983 184.335 173.944C185.859 173.485 186.553 173.177 188.487 172.635C189.675 172.303 192.952 171.541 194.594 171.077C196.235 170.613 195.527 168.756 194.77 168.781C191.375 168.898 188.966 168.419 187.506 167.731C187.265 167.604 186.986 167.573 186.724 167.643Z" fill="#263238"/>
  <path d="M176.871 97.7756C177.704 98.0421 178.435 98.5615 178.96 99.2618C179.485 99.9621 179.779 100.809 179.802 101.684C179.958 103.999 181.174 106.696 181.052 108.41C180.93 110.125 178.869 111.259 178.869 111.259L176.871 97.7756Z" fill="#407BFF"/>
  <path opacity="0.1" d="M176.871 97.7756C177.704 98.0421 178.435 98.5615 178.96 99.2618C179.485 99.9621 179.779 100.809 179.802 101.684C179.958 103.999 181.174 106.696 181.052 108.41C180.93 110.125 178.869 111.259 178.869 111.259L176.871 97.7756Z" fill="black"/>
  <path d="M174.213 78.9435C174.213 78.9435 178.874 108.152 181.052 119.705C183.006 129.871 184.672 149.734 187.173 158.625C187.466 159.655 186.841 160.618 185.708 160.935L178.903 162.757C177.437 163.168 175.737 162.357 175.254 161.033C172.371 153.183 171.507 133.593 169.245 122.108C165.249 111.102 160.066 78.9435 160.066 78.9435H174.213Z" fill="#407BFF"/>
  <path d="M182.117 169.294L187.354 168.649L185.742 160.935L178.942 162.758L182.117 169.294Z" fill="#263238"/>
  <path d="M149.744 43.4775C148.18 44.0881 147.106 45.9933 147.462 47.537C150.711 61.5182 147.394 80.2673 150.11 85.3723C159.362 86.9062 168.185 87.6634 175.386 85.3723C178.16 68.3183 174.448 50.2385 173.295 46.1936C173.016 45.2166 172.122 44.5962 171.111 44.2005C167.599 42.8424 153.769 41.9142 149.744 43.4775Z" fill="#407BFF"/>
  <path opacity="0.4" d="M149.744 43.4775C148.18 44.0881 147.106 45.9933 147.462 47.537C150.711 61.5182 147.394 80.2673 150.11 85.3723C159.362 86.9062 168.185 87.6634 175.386 85.3723C178.16 68.3183 174.448 50.2385 173.295 46.1936C173.016 45.2166 172.122 44.5962 171.111 44.2005C167.599 42.8424 153.769 41.9142 149.744 43.4775Z" fill="black"/>
  <path d="M158.034 35.3829C158.322 38.1234 158.136 41.5284 155.259 43.3945C155.259 43.3945 156.299 46.1643 163.173 46.0813C169.45 46.0031 166.749 43.2528 166.749 43.2528C162.743 42.5689 163.564 38.7731 164.619 36.6286L158.034 35.3829Z" fill="#FF8B7B"/>
  <path opacity="0.2" d="M164.629 36.6383C163.998 37.8987 163.461 39.7209 163.94 41.1571C163.333 41.0981 162.735 40.9635 162.162 40.7565C159.968 39.97 159.025 38.7048 158.136 36.8142C158.136 36.3257 158.087 35.8372 158.039 35.3926L164.629 36.6383Z" fill="black"/>
  <path d="M163.871 25.7593C167.149 25.9791 166.05 29.1202 164.985 30.1559C163.92 31.1915 161.795 25.6225 163.871 25.7593Z" fill="#263238"/>
  <path d="M165.508 27.7133C168.527 28.915 166.387 31.5481 165.019 32.2027C163.652 32.8573 163.593 26.9463 165.508 27.7133Z" fill="#263238"/>
  <path d="M154.805 31.8607C156.08 35.5148 156.627 37.7228 159.133 39.1884C162.899 41.4453 167.247 38.7634 167.149 34.8797C167.056 31.382 164.99 25.9937 160.755 25.2951C156.519 24.5965 153.534 28.2018 154.805 31.8607Z" fill="#FF8B7B"/>
  <path d="M155.62 34.2203C157.291 34.2545 156.69 30.6297 156.216 29.9849C157.926 29.682 164.291 27.469 164.316 26.5653C164.34 25.6615 162.968 24.1227 160.94 24.2937C158.913 24.4647 153.505 26.2478 153.271 27.9966C153.036 29.7455 152.631 33.3458 155.62 34.2203Z" fill="#263238"/>
  <path d="M164.785 25.8911C165.454 28.8857 161.912 28.7587 160.554 28.0845C159.196 27.4104 164.36 23.9712 164.785 25.8911Z" fill="#263238"/>
  <path d="M154.756 35.1728C151.556 34.4742 153.173 31.5382 154.404 30.6687C155.635 29.7991 156.783 35.6222 154.756 35.1728Z" fill="#263238"/>
  <path d="M163.544 35.7248C162.779 35.7932 162.017 35.566 161.414 35.0898C161.406 35.0816 161.399 35.0717 161.394 35.0608C161.389 35.0499 161.387 35.0381 161.387 35.0263C161.387 35.0144 161.389 35.0027 161.394 34.9917C161.399 34.9808 161.406 34.971 161.414 34.9628C161.433 34.9459 161.457 34.9366 161.483 34.9366C161.508 34.9366 161.532 34.9459 161.551 34.9628C161.88 35.2118 162.259 35.3884 162.661 35.481C163.063 35.5736 163.481 35.5801 163.886 35.5001C163.911 35.4953 163.936 35.4996 163.958 35.5122C163.979 35.5248 163.995 35.5448 164.003 35.5685C164.008 35.5925 164.002 35.6171 163.989 35.6372C163.975 35.6573 163.954 35.6713 163.93 35.676C163.802 35.699 163.673 35.7153 163.544 35.7248Z" fill="#263238"/>
  <path d="M154.448 35.5538C155.158 36.2044 156.084 36.5697 157.047 36.5797C158.317 36.5797 158.561 35.4415 157.877 34.4791C157.267 33.6144 155.865 32.569 154.746 33.0136C153.627 33.4581 153.593 34.7576 154.448 35.5538Z" fill="#FF8B7B"/>
  <path opacity="0.2" d="M164.34 46.643C165.195 51.1569 166.612 69.9597 165.86 83.8188C167.608 66.5059 164.34 46.643 164.34 46.643Z" fill="black"/>
  <path d="M161.018 31.6849C161.101 31.9877 161.341 32.1734 161.546 32.1734C161.751 32.1734 161.859 31.851 161.771 31.5481C161.683 31.2452 161.453 31.0596 161.243 31.0596C161.033 31.0596 160.935 31.3869 161.018 31.6849Z" fill="#263238"/>
  <path d="M164.629 30.9569C164.712 31.2549 164.951 31.4454 165.156 31.4454C165.361 31.4454 165.469 31.123 165.381 30.8201C165.293 30.5172 165.063 30.3316 164.853 30.3316C164.643 30.3316 164.531 30.654 164.629 30.9569Z" fill="#263238"/>
  <path d="M163.515 31.2647C164.096 32.0344 164.776 32.7242 165.537 33.3165C165.369 33.4913 165.166 33.6283 164.941 33.7184C164.716 33.8086 164.475 33.8497 164.233 33.8392L163.515 31.2647Z" fill="#FF5652"/>
  <path d="M166.837 32.8329C167.555 33.3898 167.291 36.6677 166.949 37.591C166.737 38.1236 166.407 38.6012 165.984 38.9879C165.561 39.3745 165.056 39.6603 164.506 39.8235C162.987 40.1997 159.709 40.6198 159.387 38.529C159.064 36.4381 158.302 36.0229 158.996 34.9384C159.69 33.8539 162.67 32.4568 164.238 32.3542C165.308 32.2907 165.991 32.1783 166.837 32.8329Z" fill="white"/>
  <path d="M159.401 35.4952C159.377 35.5 159.352 35.5 159.328 35.4952C158.039 35.0502 156.895 34.2614 156.021 33.2139C156 33.1887 155.985 33.1596 155.976 33.1284C155.967 33.0973 155.964 33.0646 155.968 33.0322C155.971 32.9999 155.981 32.9687 155.997 32.9403C156.013 32.912 156.034 32.887 156.06 32.867C156.112 32.828 156.177 32.8103 156.241 32.8176C156.306 32.8248 156.365 32.8565 156.407 32.9061C157.222 33.8729 158.281 34.6034 159.475 35.0214C159.506 35.0308 159.535 35.0465 159.561 35.0674C159.586 35.0884 159.607 35.1142 159.622 35.1434C159.637 35.1726 159.646 35.2045 159.648 35.2373C159.651 35.27 159.647 35.3029 159.636 35.334C159.619 35.382 159.587 35.4234 159.545 35.4523C159.503 35.4812 159.452 35.4962 159.401 35.4952Z" fill="white"/>
  <path d="M158.126 37.2686C157.568 37.2787 157.019 37.1332 156.539 36.8484C156.482 36.8141 156.442 36.7587 156.427 36.6946C156.411 36.6305 156.421 36.5629 156.456 36.5065C156.472 36.4788 156.494 36.4546 156.52 36.4354C156.546 36.4162 156.576 36.4024 156.607 36.3947C156.638 36.3869 156.671 36.3855 156.703 36.3905C156.735 36.3954 156.765 36.4066 156.793 36.4234C158.029 37.1758 159.621 36.4625 159.641 36.4576C159.67 36.4438 159.702 36.436 159.735 36.4346C159.767 36.4333 159.8 36.4384 159.83 36.4498C159.861 36.4612 159.889 36.4786 159.912 36.5009C159.936 36.5232 159.955 36.55 159.968 36.5798C159.994 36.6396 159.995 36.7069 159.972 36.7677C159.95 36.8286 159.904 36.8785 159.846 36.9071C159.302 37.1377 158.718 37.2605 158.126 37.2686Z" fill="white"/>
  <path d="M160.105 31.4162C160.132 31.4091 160.156 31.3956 160.177 31.3769C160.197 31.3582 160.213 31.3348 160.222 31.3087C160.299 31.0896 160.428 30.8926 160.598 30.735C160.768 30.5774 160.975 30.4641 161.199 30.405C161.223 30.4011 161.246 30.3922 161.266 30.3789C161.286 30.3657 161.303 30.3484 161.316 30.3281C161.329 30.3078 161.337 30.285 161.34 30.2612C161.344 30.2374 161.342 30.2132 161.336 30.19C161.32 30.1413 161.287 30.1 161.243 30.0739C161.199 30.0478 161.147 30.0387 161.097 30.0484C160.815 30.1221 160.556 30.264 160.342 30.4617C160.128 30.6594 159.966 30.9066 159.87 31.1817C159.857 31.2284 159.862 31.2785 159.885 31.3215C159.907 31.3644 159.946 31.3967 159.993 31.4113C160.029 31.4224 160.068 31.4241 160.105 31.4162Z" fill="#263238"/>
  <path d="M166.094 29.7992C166.118 29.7849 166.138 29.7647 166.153 29.7405C166.165 29.72 166.173 29.6971 166.176 29.6732C166.18 29.6493 166.178 29.6251 166.171 29.602C166.164 29.579 166.152 29.5576 166.136 29.5394C166.121 29.5212 166.101 29.5065 166.079 29.4963C165.813 29.3394 165.515 29.2428 165.207 29.2132C164.899 29.1837 164.588 29.2219 164.296 29.3253C164.275 29.3341 164.255 29.3475 164.239 29.3644C164.222 29.3814 164.21 29.4017 164.202 29.4238C164.194 29.446 164.191 29.4696 164.193 29.493C164.195 29.5165 164.202 29.5392 164.213 29.5598C164.238 29.6049 164.279 29.639 164.328 29.6553C164.377 29.6715 164.43 29.6689 164.477 29.6477C164.709 29.5694 164.956 29.5423 165.2 29.5685C165.443 29.5946 165.679 29.6733 165.889 29.7992C165.92 29.8172 165.955 29.8266 165.991 29.8266C166.028 29.8266 166.063 29.8172 166.094 29.7992Z" fill="#263238"/>
  <path d="M163.339 46.7554L163.998 43.966C163.998 43.966 162.567 39.7257 161.61 39.545C160.233 39.5954 158.87 39.2568 157.677 38.5679C156.778 38.1332 156.573 37.8156 156.158 37.7277C156.054 37.703 155.947 37.6989 155.841 37.7157C155.736 37.7326 155.635 37.7699 155.545 37.8257C155.454 37.8815 155.375 37.9547 155.313 38.0409C155.25 38.1272 155.205 38.225 155.181 38.3286C154.86 39.8465 154.638 41.3836 154.516 42.9304C156.075 45.2215 158.634 46.3157 163.339 46.7554Z" fill="#407BFF"/>
  <path opacity="0.4" d="M163.339 46.7554L163.998 43.966C163.998 43.966 162.567 39.7257 161.61 39.545C160.233 39.5954 158.87 39.2568 157.677 38.5679C156.778 38.1332 156.573 37.8156 156.158 37.7277C156.054 37.703 155.947 37.6989 155.841 37.7157C155.736 37.7326 155.635 37.7699 155.545 37.8257C155.454 37.8815 155.375 37.9547 155.313 38.0409C155.25 38.1272 155.205 38.225 155.181 38.3286C154.86 39.8465 154.638 41.3836 154.516 42.9304C156.075 45.2215 158.634 46.3157 163.339 46.7554Z" fill="black"/>
  <path d="M163.339 46.7554L163.998 43.966C163.998 43.966 165.952 40.859 166.094 39.5254C167.56 38.7291 165.503 38.0599 167.525 38.1869C168.366 38.2406 168.38 39.7452 168.38 39.7452C168.298 41.2186 168.135 42.6864 167.892 44.1418C167.149 45.837 165.674 46.6039 163.339 46.7554Z" fill="#407BFF"/>
  <path opacity="0.4" d="M163.339 46.7554L163.998 43.966C163.998 43.966 165.952 40.859 166.094 39.5254C167.56 38.7291 165.503 38.0599 167.525 38.1869C168.366 38.2406 168.38 39.7452 168.38 39.7452C168.298 41.2186 168.135 42.6864 167.892 44.1418C167.149 45.837 165.674 46.6039 163.339 46.7554Z" fill="black"/>
  <path d="M151.302 43.3603C151.24 43.3303 151.189 43.2826 151.154 43.2233C151.119 43.164 151.103 43.0958 151.107 43.0272C151.112 42.9587 151.136 42.893 151.178 42.8383C151.219 42.7837 151.276 42.7426 151.341 42.7203C152.245 42.3637 153.666 41.885 154.58 42.012C156.001 42.2172 160.442 51.2156 161.908 58.597C163.373 65.9784 162.308 77.1604 161.776 79.305C155.425 79.3587 149.465 77.9762 148.097 77.18C147.882 74.3222 148.547 59.232 148.547 59.232C148.547 59.232 154.565 53.2478 153.964 48.2943C153.574 45.0505 152.201 43.8244 151.302 43.3603Z" fill="#407BFF"/>
  <path opacity="0.6" d="M151.302 43.3603C151.24 43.3303 151.189 43.2826 151.154 43.2233C151.119 43.164 151.103 43.0958 151.107 43.0272C151.112 42.9587 151.136 42.893 151.178 42.8383C151.219 42.7837 151.276 42.7426 151.341 42.7203C152.245 42.3637 153.666 41.885 154.58 42.012C156.001 42.2172 160.442 51.2156 161.908 58.597C163.373 65.9784 162.308 77.1604 161.776 79.305C155.425 79.3587 149.465 77.9762 148.097 77.18C147.882 74.3222 148.547 59.232 148.547 59.232C148.547 59.232 154.565 53.2478 153.964 48.2943C153.574 45.0505 152.201 43.8244 151.302 43.3603Z" fill="white"/>
  <path d="M146.143 82.3387L147.12 84.8349C147.355 85.4145 147.389 86.0558 147.218 86.6571L146.793 88.1226C146.702 88.4068 146.51 88.6479 146.254 88.8008C145.997 88.9537 145.694 89.0078 145.401 88.9531L143.5 88.6405C143.201 88.598 142.931 88.4393 142.748 88.1988C142.565 87.9582 142.484 87.6553 142.523 87.3557L142.86 85.172C142.86 85.172 141.771 82.1677 144.077 80.8682L146.143 82.3387Z" fill="#407BFF"/>
  <path opacity="0.3" d="M146.143 82.3387L147.12 84.8349C147.355 85.4145 147.389 86.0558 147.218 86.6571L146.793 88.1226C146.702 88.4068 146.51 88.6479 146.254 88.8008C145.997 88.9537 145.694 89.0078 145.401 88.9531L143.5 88.6405C143.201 88.598 142.931 88.4393 142.748 88.1988C142.565 87.9582 142.484 87.6553 142.523 87.3557L142.86 85.172C142.86 85.172 141.771 82.1677 144.077 80.8682L146.143 82.3387Z" fill="white"/>
  <path d="M146.93 80.5067C147.067 80.9465 147.109 81.4104 147.053 81.8677C146.998 82.3249 146.846 82.7652 146.607 83.1593C145.97 83.4844 145.266 83.6539 144.551 83.6539C143.836 83.6539 143.131 83.4844 142.494 83.1593C142.317 82.8763 142.229 82.5463 142.242 82.2125C142.255 81.8787 142.368 81.5567 142.567 81.2883L146.93 80.5067Z" fill="#407BFF"/>
  <path d="M148.088 44.8502L149.358 45.5928C150.771 46.368 151.83 47.6593 152.313 49.1969C152.796 50.7345 152.667 52.3994 151.952 53.8437C149.729 58.2403 146.92 64.1318 146.91 65.5973C146.91 68.9094 147.555 77.1213 147.223 81.0832C146.378 82.2898 142.777 82.8027 142.015 82.1676C139.812 76.794 139.754 66.9749 140.095 64.0145C140.867 57.2682 148.088 44.8502 148.088 44.8502Z" fill="#407BFF"/>
  <path opacity="0.4" d="M148.088 44.8502L149.358 45.5928C150.771 46.368 151.83 47.6593 152.313 49.1969C152.796 50.7345 152.667 52.3994 151.952 53.8437C149.729 58.2403 146.92 64.1318 146.91 65.5973C146.91 68.9094 147.555 77.1213 147.223 81.0832C146.378 82.2898 142.777 82.8027 142.015 82.1676C139.812 76.794 139.754 66.9749 140.095 64.0145C140.867 57.2682 148.088 44.8502 148.088 44.8502Z" fill="black"/>
  <path d="M185.034 79.8276L187.12 81.6546C187.597 82.0728 187.929 82.6324 188.067 83.2521L188.39 84.7616C188.444 85.0493 188.385 85.3467 188.224 85.5917C188.064 85.8366 187.815 86.0101 187.53 86.0757L185.679 86.5642C185.38 86.6513 185.06 86.6233 184.782 86.4858C184.503 86.3483 184.286 86.1113 184.174 85.8217L183.446 83.7259C183.446 83.7259 181.043 81.469 182.503 79.3586L185.034 79.8276Z" fill="#407BFF"/>
  <path opacity="0.3" d="M185.034 79.8276L187.12 81.6546C187.597 82.0728 187.929 82.6324 188.067 83.2521L188.39 84.7616C188.444 85.0493 188.385 85.3467 188.224 85.5917C188.064 85.8366 187.815 86.0101 187.53 86.0757L185.679 86.5642C185.38 86.6513 185.06 86.6233 184.782 86.4858C184.503 86.3483 184.286 86.1113 184.174 85.8217L183.446 83.7259C183.446 83.7259 181.043 81.469 182.503 79.3586L185.034 79.8276Z" fill="white"/>
  <path d="M184.872 77.8589C185.205 78.1849 185.463 78.5779 185.632 79.0116C185.8 79.4454 185.875 79.9101 185.85 80.3748C185.419 80.936 184.857 81.3827 184.213 81.6758C183.569 81.9688 182.863 82.0991 182.156 82.0553C181.865 81.8841 181.632 81.63 181.485 81.3254C181.339 81.0209 181.287 80.6798 181.336 80.3455L184.872 77.8589Z" fill="#407BFF"/>
  <path d="M166.446 44.606H167.941C171.458 44.5767 174.443 46.9997 174.902 50.2483C175.586 55.0894 176.617 61.4401 177.462 62.6858C179.362 65.4801 183.842 74.5762 185.41 78.2693C185.224 79.6958 182.239 81.6352 181.253 81.386C176.724 77.4389 172.235 67.439 170.803 64.7766C167.56 58.6947 166.446 44.606 166.446 44.606Z" fill="#407BFF"/>
  <path opacity="0.4" d="M166.446 44.606H167.941C171.458 44.5767 174.443 46.9997 174.902 50.2483C175.586 55.0894 176.617 61.4401 177.462 62.6858C179.362 65.4801 183.842 74.5762 185.41 78.2693C185.224 79.6958 182.239 81.6352 181.253 81.386C176.724 77.4389 172.235 67.439 170.803 64.7766C167.56 58.6947 166.446 44.606 166.446 44.606Z" fill="black"/>
  <path d="M168.654 44.0393C169.352 47.8399 171.072 63.7458 168.38 79.3049C170.921 79.5932 173.494 79.3707 175.947 78.6503C176.274 78.5666 176.564 78.3778 176.772 78.1129C176.98 77.848 177.096 77.5218 177.1 77.1848C177.012 73.2767 176.661 60.038 175.986 54.5325C175.19 48.0353 173.51 45.0651 172.313 44.4252C171.351 43.9984 170.345 43.6805 169.313 43.4775C169.231 43.4546 169.144 43.4522 169.061 43.4707C168.977 43.4891 168.899 43.5277 168.834 43.5832C168.769 43.6386 168.719 43.7092 168.687 43.7887C168.656 43.8683 168.644 43.9543 168.654 44.0393Z" fill="#407BFF"/>
  <path opacity="0.6" d="M168.654 44.0393C169.352 47.8399 171.072 63.7458 168.38 79.3049C170.921 79.5932 173.494 79.3707 175.947 78.6503C176.274 78.5666 176.564 78.3778 176.772 78.1129C176.98 77.848 177.096 77.5218 177.1 77.1848C177.012 73.2767 176.661 60.038 175.986 54.5325C175.19 48.0353 173.51 45.0651 172.313 44.4252C171.351 43.9984 170.345 43.6805 169.313 43.4775C169.231 43.4546 169.144 43.4522 169.061 43.4707C168.977 43.4891 168.899 43.5277 168.834 43.5832C168.769 43.6386 168.719 43.7092 168.687 43.7887C168.656 43.8683 168.644 43.9543 168.654 44.0393Z" fill="white"/>
  <path d="M163.573 25.2463C165.527 24.6405 168.239 24.494 166.993 25.8471C165.747 27.2003 164.55 25.0557 161.375 28.4362C158.2 31.8167 154.829 31.0156 154.829 31.0156C154.829 31.0156 158.38 26.8339 163.573 25.2463Z" fill="#407BFF"/>
  <path d="M164.316 25.3C163.876 24.3669 160.779 22.1295 159.367 22.193C156.832 22.3103 153.354 24.9776 152.132 26.3063C150.799 27.7718 151.693 30.0825 153.29 31.9926C157.912 29.9213 164.316 25.3 164.316 25.3Z" fill="#407BFF"/>
  <path opacity="0.2" d="M164.316 25.3C163.876 24.3669 160.779 22.1295 159.367 22.193C156.832 22.3103 153.354 24.9776 152.132 26.3063C150.799 27.7718 151.693 30.0825 153.29 31.9926C157.912 29.9213 164.316 25.3 164.316 25.3Z" fill="white"/>
  <path d="M79.8766 27.3566C81.2493 26.5164 86.2663 26.5652 87.6928 26.5652C89.1192 26.5652 91.6302 26.233 92.3141 26.9609C92.998 27.6888 91.7034 31.3575 91.7034 31.3575C91.7034 31.3575 85.6019 34.2446 83.3987 34.2446C81.1956 34.2446 78.2742 28.3336 79.8766 27.3566Z" fill="#407BFF"/>
  <path opacity="0.4" d="M79.8766 27.3566C81.2493 26.5164 86.2663 26.5652 87.6928 26.5652C89.1192 26.5652 91.6302 26.233 92.3141 26.9609C92.998 27.6888 91.7034 31.3575 91.7034 31.3575C91.7034 31.3575 85.6019 34.2446 83.3987 34.2446C81.1956 34.2446 78.2742 28.3336 79.8766 27.3566Z" fill="black"/>
  <path d="M97.2139 168.219H101.845C101.935 168.226 102.019 168.266 102.082 168.33C102.145 168.395 102.182 168.481 102.187 168.571L102.822 173.143C102.845 173.245 102.847 173.351 102.827 173.454C102.807 173.557 102.766 173.654 102.706 173.74C102.647 173.826 102.569 173.899 102.48 173.953C102.391 174.008 102.291 174.043 102.187 174.057C100.57 174.023 99.7883 173.905 97.7512 173.905C96.4958 173.905 93.1153 174.067 91.4006 174.067C89.6859 174.067 89.5247 171.932 90.2428 171.736C93.4523 170.872 95.4845 169.675 96.5495 168.537C96.6331 168.442 96.735 168.365 96.8492 168.31C96.9634 168.255 97.0874 168.224 97.2139 168.219Z" fill="#263238"/>
  <path d="M81.2249 71.3569C81.2249 71.3569 85.6215 101.865 87.087 113.75C88.4695 124.986 90.277 150.344 92.0698 158.341C92.1974 158.895 92.5081 159.388 92.9514 159.743C93.3947 160.098 93.9447 160.292 94.5124 160.295L101.64 160.193C101.999 160.193 102.354 160.117 102.681 159.969C103.008 159.82 103.3 159.604 103.536 159.334C103.773 159.063 103.949 158.746 104.052 158.402C104.156 158.058 104.184 157.696 104.136 157.34C102.929 148.366 100.638 124.771 99.7981 114.116C98.7087 100.267 99.4708 81.7916 95.4455 71.3472L81.2249 71.3569Z" fill="#407BFF"/>
  <path d="M99.4952 160.461V159.944C99.8173 159.944 100.136 159.875 100.429 159.742C100.722 159.609 100.983 159.414 101.195 159.172C101.407 158.929 101.565 158.644 101.658 158.336C101.75 158.028 101.776 157.703 101.733 157.384C100.511 148.263 98.1958 124.341 97.3946 114.151C97.082 110.198 96.9061 105.958 96.7596 101.449C96.3492 90.3453 95.9242 78.8653 93.0615 71.435L93.55 71.2494C96.442 78.7578 96.8719 90.3014 97.2823 101.435C97.4484 105.914 97.6047 110.15 97.9173 114.092C98.7185 124.277 101.029 148.185 102.25 157.301C102.304 157.693 102.273 158.092 102.16 158.472C102.046 158.851 101.852 159.202 101.592 159.5C101.331 159.798 101.009 160.037 100.649 160.2C100.288 160.364 99.8961 160.448 99.5001 160.447L99.4952 160.461Z" fill="white"/>
  <path d="M102.353 169.817L96.6326 170.588L94.5222 160.305L101.65 160.203L102.353 169.817Z" fill="#263238"/>
  <path d="M73.3891 168.219H78.0202C78.0631 168.222 78.1049 168.234 78.1432 168.253C78.1814 168.273 78.2155 168.3 78.2432 168.332C78.271 168.365 78.2919 168.403 78.3048 168.444C78.3177 168.485 78.3222 168.528 78.3182 168.571L78.4159 173.143C78.4316 173.361 78.3635 173.577 78.2255 173.747C78.0876 173.917 77.8901 174.028 77.6734 174.057C76.0613 174.023 75.2943 173.905 73.2768 173.905C72.0213 173.905 68.6213 174.067 66.8919 174.067C65.1626 174.067 65.2652 171.932 66.0077 171.736C69.3198 170.872 71.4937 169.675 72.6906 168.537C72.8753 168.347 73.1247 168.234 73.3891 168.219Z" fill="#263238"/>
  <path d="M72.4317 90.7801C71.6639 91.1181 71.0182 91.6833 70.5814 92.3995C70.1447 93.1157 69.938 93.9486 69.9891 94.7859C69.9891 97.0721 69.0414 99.7834 69.2563 101.464C69.4713 103.144 71.4302 104.136 71.4302 104.136L72.4317 90.7801Z" fill="#407BFF"/>
  <path opacity="0.1" d="M72.4317 90.7801C71.6639 91.1181 71.0182 91.6833 70.5814 92.3995C70.1447 93.1157 69.938 93.9486 69.9891 94.7859C69.9891 97.0721 69.0414 99.7834 69.2563 101.464C69.4713 103.144 71.4302 104.136 71.4302 104.136L72.4317 90.7801Z" fill="black"/>
  <path d="M73.4038 71.3569C73.4038 71.3569 70.6193 103.599 69.9012 116.256C69.2661 127.409 69.1342 148.405 69.5104 158.341C69.5198 158.61 69.5824 158.874 69.6946 159.118C69.8069 159.362 69.9665 159.581 70.1642 159.763C70.3619 159.945 70.5938 160.085 70.8464 160.177C71.0989 160.268 71.3671 160.309 71.6354 160.295L78.7774 160.193C79.5385 160.169 80.2638 159.864 80.8139 159.337C81.3639 158.811 81.6999 158.099 81.7574 157.34C82.07 148.366 81.2249 130.027 82.0163 117.419C84.6054 105.118 87.6342 71.3472 87.6342 71.3472L73.4038 71.3569Z" fill="#407BFF"/>
  <path d="M78.3427 169.817L72.5343 170.588L71.6354 160.305L78.7726 160.203L78.3427 169.817Z" fill="#263238"/>
  <path d="M98.0835 32.9941C98.8873 33.3836 99.5444 34.0213 99.9579 34.813C100.371 35.6047 100.519 36.5085 100.379 37.3907C97.1015 52.5345 100.448 72.7931 97.7073 78.328C88.3816 79.9889 79.4711 80.8096 72.2167 78.328C69.4225 59.8769 73.1645 40.312 74.3271 35.9349C74.6104 34.8651 75.5142 34.2105 76.5303 33.7855C80.072 32.2906 94.019 31.2647 98.0835 32.9941Z" fill="#407BFF"/>
  <path opacity="0.2" d="M98.0835 32.9941C98.8873 33.3836 99.5444 34.0213 99.9579 34.813C100.371 35.6047 100.519 36.5085 100.379 37.3907C97.1015 52.5345 100.448 72.7931 97.7073 78.328C88.3816 79.9889 79.4711 80.8096 72.2167 78.328C69.4225 59.8769 73.1645 40.312 74.3271 35.9349C74.6104 34.8651 75.5142 34.2105 76.5303 33.7855C80.072 32.2906 94.019 31.2647 98.0835 32.9941Z" fill="black"/>
  <path d="M89.7201 24.2155C89.4319 27.1857 89.6126 30.869 92.5193 32.8866C92.5193 32.8866 91.4641 35.8861 84.537 35.8177C78.1863 35.7346 80.9269 32.7596 80.9269 32.7596C84.9669 32.0219 84.1462 27.9136 83.0763 25.5931L89.7201 24.2155Z" fill="#B55B52"/>
  <path opacity="0.2" d="M83.0764 25.5687C83.7065 26.9316 84.2488 28.9052 83.77 30.4538C84.3838 30.389 84.9865 30.2445 85.5629 30.0239C87.7758 29.1739 88.7236 27.8012 89.6224 25.7592C89.6224 25.2316 89.6713 24.7138 89.7201 24.2155L83.0764 25.5687Z" fill="black"/>
  <path d="M80.0378 22.2468C80.1884 22.7232 80.4346 23.1639 80.7614 23.5419C81.0881 23.9198 81.4885 24.2272 81.9381 24.4451C83.1496 25.0118 84.029 23.9566 83.9215 22.6621C83.8238 21.5043 83.0764 19.814 81.7525 19.7896C81.4591 19.7919 81.1705 19.8644 80.9109 20.0011C80.6513 20.1377 80.4282 20.3346 80.2603 20.5752C80.0924 20.8158 79.9846 21.0932 79.9459 21.384C79.9072 21.6748 79.9387 21.9707 80.0378 22.2468Z" fill="#B55B52"/>
  <path opacity="0.2" d="M80.0378 22.2468C80.1884 22.7232 80.4346 23.1639 80.7614 23.5419C81.0881 23.9198 81.4885 24.2272 81.9381 24.4451C83.1496 25.0118 84.029 23.9566 83.9215 22.6621C83.8238 21.5043 83.0764 19.814 81.7525 19.7896C81.4591 19.7919 81.1705 19.8644 80.9109 20.0011C80.6513 20.1377 80.4282 20.3346 80.2603 20.5752C80.0924 20.8158 79.9846 21.0932 79.9459 21.384C79.9072 21.6748 79.9387 21.9707 80.0378 22.2468Z" fill="black"/>
  <path d="M83.9801 13.5708C82.6172 14.5478 81.7818 17.2004 82.8565 18.324C83.9312 19.4476 85.6997 12.3593 83.9801 13.5708Z" fill="#263238"/>
  <path d="M92.9736 20.4051C91.6937 24.3621 91.1368 26.7558 88.6112 28.3532C84.8154 30.7958 80.4286 27.894 80.5312 23.6879C80.6045 19.902 82.7051 14.074 86.9551 13.3217C91.2052 12.5694 94.2828 16.4531 92.9736 20.4051Z" fill="#B55B52"/>
  <path d="M92.1529 22.9601C90.4675 22.9991 91.0782 19.052 91.552 18.3827C89.8276 18.0505 83.4085 15.6568 83.3841 14.6896C83.3597 13.7223 84.7422 12.0369 86.8037 12.247C88.8652 12.4571 94.3024 14.3574 94.5369 16.2528C94.7713 18.1482 95.1719 22.0124 92.1529 22.9601Z" fill="#263238"/>
  <path d="M84.1608 24.5916C84.5469 24.6246 84.9356 24.5807 85.3045 24.4624C85.6735 24.3442 86.0153 24.154 86.3103 23.9028C86.3284 23.8854 86.3389 23.8614 86.3393 23.8362C86.3398 23.811 86.3302 23.7866 86.3127 23.7685C86.2952 23.7504 86.2713 23.7399 86.2461 23.7395C86.2209 23.739 86.1965 23.7486 86.1784 23.7661C85.8546 24.0333 85.4749 24.2244 85.0673 24.325C84.6597 24.4256 84.2347 24.4333 83.8238 24.3474C83.8113 24.3445 83.7983 24.3441 83.7856 24.3462C83.773 24.3483 83.7609 24.3529 83.75 24.3597C83.7391 24.3666 83.7296 24.3754 83.7222 24.3859C83.7147 24.3963 83.7094 24.4082 83.7065 24.4207C83.7036 24.4332 83.7032 24.4461 83.7054 24.4588C83.7075 24.4715 83.7121 24.4836 83.7189 24.4945C83.7257 24.5054 83.7346 24.5148 83.745 24.5222C83.7555 24.5297 83.7673 24.535 83.7798 24.5379C83.9058 24.5623 84.033 24.5803 84.1608 24.5916Z" fill="#263238"/>
  <path d="M93.6038 24.4256C92.8635 25.1578 91.8701 25.5775 90.829 25.598C89.471 25.598 89.2121 24.2937 89.9399 23.1897C90.5945 22.2126 92.0943 20.9963 93.2911 21.519C94.488 22.0417 94.5173 23.5023 93.6038 24.4256Z" fill="#B55B52"/>
  <path opacity="0.2" d="M83.3597 36.404C82.4999 41.2891 81.0685 61.6307 81.8306 76.6281C80.0622 57.8985 83.3597 36.404 83.3597 36.404Z" fill="black"/>
  <path d="M86.706 20.2195C86.6229 20.5468 86.3836 20.7764 86.1735 20.708C85.9634 20.6396 85.8657 20.3612 85.9488 20.0339C86.0318 19.7066 86.2712 19.4819 86.4813 19.5454C86.6913 19.6089 86.7939 19.8922 86.706 20.2195Z" fill="#263238"/>
  <path d="M83.0812 19.4281C82.9982 19.7554 82.7588 19.9801 82.5487 19.9166C82.3387 19.8531 82.2361 19.5698 82.324 19.2425C82.412 18.9152 82.6464 18.6905 82.8565 18.754C83.0666 18.8175 83.1692 19.1008 83.0812 19.4281Z" fill="#263238"/>
  <path d="M84.195 19.7554C83.6136 20.5817 82.9271 21.3288 82.1531 21.9782C82.3158 22.1649 82.5183 22.3127 82.7457 22.4108C82.9732 22.5088 83.2197 22.5547 83.4672 22.5448L84.195 19.7554Z" fill="#A02724"/>
  <path d="M80.8438 21.4604C80.1159 22.0612 80.3846 25.6127 80.7315 26.6093C80.928 27.1709 81.2502 27.6803 81.6735 28.0985C82.0968 28.5168 82.61 28.8328 83.174 29.0225C84.708 29.4329 88.0103 29.8872 88.3376 27.6254C88.6649 25.3636 89.427 24.9142 88.7284 23.7173C88.0298 22.5204 85.0206 21.0305 83.4427 20.923C82.3875 20.8742 81.6938 20.752 80.8438 21.4604Z" fill="white"/>
  <path d="M88.3425 24.3327C88.2879 24.3328 88.2346 24.316 88.19 24.2845C88.1453 24.253 88.1116 24.2084 88.0934 24.1569C88.0827 24.1245 88.0785 24.0903 88.0811 24.0563C88.0837 24.0223 88.093 23.9891 88.1084 23.9587C88.1238 23.9283 88.1451 23.9012 88.1711 23.8791C88.197 23.8569 88.227 23.8401 88.2595 23.8296C89.4807 23.3661 90.5506 22.5751 91.3517 21.5433C91.3934 21.4894 91.4543 21.4537 91.5217 21.4437C91.5891 21.4337 91.6577 21.4501 91.7132 21.4896C91.7682 21.5305 91.8047 21.5915 91.8148 21.6593C91.8249 21.727 91.8077 21.796 91.767 21.8511C90.9055 22.9706 89.7481 23.8268 88.4256 24.323L88.3425 24.3327Z" fill="white"/>
  <path d="M89.6273 26.2477C89.0251 26.2405 88.431 26.1073 87.8833 25.8569C87.8185 25.8264 87.7685 25.7715 87.7442 25.7042C87.7199 25.6368 87.7234 25.5626 87.7539 25.4978C87.7843 25.433 87.8392 25.383 87.9066 25.3587C87.9739 25.3345 88.0481 25.3379 88.1129 25.3684C88.1129 25.3684 89.7201 26.1402 90.9561 25.3342C91.0139 25.2967 91.0842 25.2834 91.1517 25.2971C91.2193 25.3108 91.2788 25.3504 91.3176 25.4074C91.3365 25.4362 91.3495 25.4685 91.3559 25.5023C91.3622 25.5362 91.3617 25.571 91.3544 25.6046C91.3471 25.6383 91.3332 25.6702 91.3135 25.6984C91.2937 25.7266 91.2685 25.7506 91.2394 25.7689C90.7603 26.0826 90.1999 26.249 89.6273 26.2477Z" fill="white"/>
  <path d="M87.6342 19.9313C87.6056 19.922 87.5797 19.9061 87.5585 19.8848C87.5373 19.8636 87.5213 19.8377 87.5121 19.8092C87.4421 19.5785 87.3163 19.3687 87.1459 19.1983C86.9755 19.0278 86.7657 18.9021 86.535 18.8321C86.5105 18.8259 86.4876 18.8148 86.4674 18.7996C86.4472 18.7844 86.4303 18.7653 86.4176 18.7435C86.4048 18.7217 86.3966 18.6976 86.3932 18.6725C86.3899 18.6475 86.3916 18.622 86.3982 18.5976C86.4121 18.5474 86.4445 18.5043 86.489 18.477C86.5334 18.4498 86.5866 18.4405 86.6376 18.4511C86.931 18.5329 87.1987 18.6879 87.4157 18.9015C87.6328 19.1151 87.792 19.3804 87.8784 19.6724C87.8893 19.7074 87.8906 19.7447 87.8821 19.7804C87.8736 19.8162 87.8557 19.8489 87.8303 19.8754C87.8049 19.9018 87.7728 19.921 87.7374 19.9308C87.7021 19.9406 87.6647 19.9408 87.6293 19.9313H87.6342Z" fill="#263238"/>
  <path d="M81.5815 18.1775C81.556 18.1627 81.5356 18.1406 81.5229 18.114C81.51 18.092 81.5016 18.0676 81.4983 18.0423C81.495 18.0169 81.4968 17.9912 81.5036 17.9666C81.5105 17.942 81.5222 17.919 81.5381 17.899C81.554 17.879 81.5737 17.8624 81.5962 17.8502C81.8605 17.6809 82.1608 17.5759 82.473 17.5437C82.7852 17.5115 83.1006 17.5529 83.3939 17.6646C83.4174 17.6743 83.4385 17.689 83.4557 17.7076C83.473 17.7262 83.486 17.7483 83.4939 17.7725C83.5018 17.7966 83.5044 17.8222 83.5014 17.8474C83.4985 17.8726 83.4902 17.8969 83.4769 17.9186C83.4537 17.9654 83.4135 18.0016 83.3644 18.0198C83.3154 18.038 83.2613 18.0367 83.2131 18.0163C82.9802 17.9297 82.7301 17.8991 82.4831 17.9271C82.2361 17.9551 81.9992 18.0409 81.7916 18.1775C81.76 18.197 81.7236 18.2073 81.6865 18.2073C81.6495 18.2073 81.6131 18.197 81.5815 18.1775Z" fill="#263238"/>
  <path d="M84.3709 36.5211L83.7016 33.507C83.7016 33.507 85.1672 28.915 86.1149 28.7245C87.5104 28.779 88.8908 28.4186 90.0816 27.6889C90.9853 27.2003 91.1954 26.873 91.6106 26.7753C91.7179 26.7526 91.8286 26.7517 91.9362 26.7725C92.0438 26.7933 92.1462 26.8354 92.2373 26.8965C92.3283 26.9575 92.4063 27.0361 92.4665 27.1277C92.5266 27.2194 92.5678 27.3221 92.5876 27.4299C92.9131 29.0739 93.1366 30.7364 93.2569 32.4079C91.6986 34.8651 89.1094 36.0473 84.3709 36.5211Z" fill="#407BFF"/>
  <path opacity="0.2" d="M84.3709 36.5211L83.7016 33.507C83.7016 33.507 85.1672 28.915 86.1149 28.7245C87.5104 28.779 88.8908 28.4186 90.0816 27.6889C90.9853 27.2003 91.1954 26.873 91.6106 26.7753C91.7179 26.7526 91.8286 26.7517 91.9362 26.7725C92.0438 26.7933 92.1462 26.8354 92.2373 26.8965C92.3283 26.9575 92.4063 27.0361 92.4665 27.1277C92.5266 27.2194 92.5678 27.3221 92.5876 27.4299C92.9131 29.0739 93.1366 30.7364 93.2569 32.4079C91.6986 34.8651 89.1094 36.0473 84.3709 36.5211Z" fill="black"/>
  <path d="M84.3709 36.5212L83.7016 33.5071C83.7016 33.5071 81.7232 30.1461 81.5913 28.7001C80.1257 27.8403 82.1873 27.1124 80.1257 27.2346C79.2806 27.2883 79.2659 28.9199 79.2659 28.9199C79.3459 30.5134 79.509 32.1016 79.7545 33.678C80.5263 35.5295 82.0114 36.36 84.3709 36.5212Z" fill="#407BFF"/>
  <path opacity="0.2" d="M84.3709 36.5212L83.7016 33.5071C83.7016 33.5071 81.7232 30.1461 81.5913 28.7001C80.1257 27.8403 82.1873 27.1124 80.1257 27.2346C79.2806 27.2883 79.2659 28.9199 79.2659 28.9199C79.3459 30.5134 79.509 32.1016 79.7545 33.678C80.5263 35.5295 82.0114 36.36 84.3709 36.5212Z" fill="black"/>
  <path d="M96.5104 32.8525C96.5738 32.8173 96.626 32.7649 96.661 32.7014C96.6961 32.6379 96.7125 32.5658 96.7084 32.4934C96.7043 32.421 96.6799 32.3512 96.638 32.292C96.5961 32.2328 96.5383 32.1867 96.4714 32.1588C95.5578 31.7729 94.1265 31.255 93.2032 31.3967C91.767 31.6117 87.2824 41.3477 85.8267 49.3349C84.3709 57.3221 85.4212 69.4469 85.9586 71.7429C92.3581 71.8015 98.3766 70.3067 99.7639 69.4469C99.9838 66.3498 99.3096 50.0237 99.3096 50.0237C99.3096 50.0237 93.2179 43.5314 93.8236 38.187C94.2193 34.6844 95.6067 33.3508 96.5104 32.8525Z" fill="#407BFF"/>
  <path opacity="0.7" d="M96.5104 32.8525C96.5738 32.8173 96.626 32.7649 96.661 32.7014C96.6961 32.6379 96.7125 32.5658 96.7084 32.4934C96.7043 32.421 96.6799 32.3512 96.638 32.292C96.5961 32.2328 96.5383 32.1867 96.4714 32.1588C95.5578 31.7729 94.1265 31.255 93.2032 31.3967C91.767 31.6117 87.2824 41.3477 85.8267 49.3349C84.3709 57.3221 85.4212 69.4469 85.9586 71.7429C92.3581 71.8015 98.3766 70.3067 99.7639 69.4469C99.9838 66.3498 99.3096 50.0237 99.3096 50.0237C99.3096 50.0237 93.2179 43.5314 93.8236 38.187C94.2193 34.6844 95.6067 33.3508 96.5104 32.8525Z" fill="white"/>
  <path d="M98.3228 72.8517L95.5285 73.5747C94.8751 73.7406 94.2906 74.1081 93.8578 74.625L92.788 75.9C92.5883 76.1356 92.4846 76.4377 92.4972 76.7463C92.5099 77.0548 92.6381 77.3473 92.8564 77.5658L94.234 78.9385C94.4598 79.1654 94.7652 79.2954 95.0854 79.3009C95.4055 79.3064 95.7151 79.1869 95.9486 78.9678L97.7024 77.3313C97.7024 77.3313 101 76.3543 100.814 73.6528L98.3228 72.8517Z" fill="#407BFF"/>
  <path opacity="0.3" d="M98.3228 72.8517L95.5285 73.5747C94.8751 73.7406 94.2906 74.1081 93.8578 74.625L92.788 75.9C92.5883 76.1356 92.4846 76.4377 92.4972 76.7463C92.5099 77.0548 92.6381 77.3473 92.8564 77.5658L94.234 78.9385C94.4598 79.1654 94.7652 79.2954 95.0854 79.3009C95.4055 79.3064 95.7151 79.1869 95.9486 78.9678L97.7024 77.3313C97.7024 77.3313 101 76.3543 100.814 73.6528L98.3228 72.8517Z" fill="white"/>
  <path d="M98.2642 71.0834C97.9111 71.5567 97.7009 72.1212 97.6584 72.7101C97.8764 73.3682 98.2767 73.9508 98.8129 74.3902C99.3491 74.8295 99.9991 75.1075 100.687 75.1918C101.02 75.056 101.307 74.829 101.517 74.5368C101.726 74.2447 101.848 73.8993 101.869 73.5406L98.2642 71.0834Z" fill="#407BFF"/>
  <path d="M99.7493 34.4597L93.8236 39.4962C93.8236 39.4962 103.736 54.2542 103.14 56.8237C102.329 60.3117 99.803 67.0532 98.103 70.9906C98.2495 72.5392 100.907 74.5714 101.908 74.3271C106.603 70.1992 111.088 58.4798 110.702 55.2751C109.813 48.0012 99.7493 34.4597 99.7493 34.4597Z" fill="#407BFF"/>
  <path opacity="0.2" d="M99.7493 34.4597L93.8236 39.4962C93.8236 39.4962 103.736 54.2542 103.14 56.8237C102.329 60.3117 99.803 67.0532 98.103 70.9906C98.2495 72.5392 100.907 74.5714 101.908 74.3271C106.603 70.1992 111.088 58.4798 110.702 55.2751C109.813 48.0012 99.7493 34.4597 99.7493 34.4597Z" fill="black"/>
  <path d="M43.2626 45.6759L40.8689 44.0589C40.3094 43.6833 39.6472 43.4905 38.9735 43.5069L37.3077 43.5509C36.9991 43.5578 36.7044 43.6808 36.4826 43.8954C36.2607 44.11 36.128 44.4004 36.1108 44.7086L35.9936 46.6627C35.9773 46.9829 36.0867 47.2968 36.2983 47.5377C36.51 47.7785 36.8073 47.9273 37.1269 47.9524L39.5011 48.1722C39.5011 48.1722 42.4322 49.9943 44.3178 48.0598L43.2626 45.6759Z" fill="#407BFF"/>
  <path opacity="0.3" d="M43.2626 45.6759L40.8689 44.0589C40.3094 43.6833 39.6472 43.4905 38.9735 43.5069L37.3077 43.5509C36.9991 43.5578 36.7044 43.6808 36.4826 43.8954C36.2607 44.11 36.128 44.4004 36.1108 44.7086L35.9936 46.6627C35.9773 46.9829 36.0867 47.2968 36.2983 47.5377C36.51 47.7785 36.8073 47.9273 37.1269 47.9524L39.5011 48.1722C39.5011 48.1722 42.4322 49.9943 44.3178 48.0598L43.2626 45.6759Z" fill="white"/>
  <path d="M44.8503 45.6222C44.3162 45.3705 43.7211 45.2772 43.1356 45.3535C42.5338 45.6992 42.0426 46.2088 41.7192 46.8228C41.3957 47.4368 41.2533 48.1301 41.3086 48.8219C41.5092 49.1198 41.7899 49.3548 42.1183 49.5001C42.4468 49.6453 42.8096 49.6947 43.1649 49.6426L44.8503 45.6222Z" fill="#407BFF"/>
  <path d="M81.0295 39.7551L74.9085 34.953C74.9085 34.953 62.4319 47.6152 59.7988 47.5468C56.218 47.454 49.1101 46.3256 44.8992 45.4462C43.4336 45.9006 41.9681 48.9098 42.3882 49.8428C47.3759 53.6093 59.7548 55.661 62.808 54.64C69.7742 52.3196 81.0295 39.7551 81.0295 39.7551Z" fill="#407BFF"/>
  <path opacity="0.2" d="M81.0295 39.7551L74.9085 34.953C74.9085 34.953 62.4319 47.6152 59.7988 47.5468C56.218 47.454 49.1101 46.3256 44.8992 45.4462C43.4336 45.9006 41.9681 48.9098 42.3882 49.8428C47.3759 53.6093 59.7548 55.661 62.808 54.64C69.7742 52.3196 81.0295 39.7551 81.0295 39.7551Z" fill="black"/>
  <path d="M79.0119 33.5853C78.3036 37.6985 76.5694 54.9088 79.2855 71.7478C76.7209 72.0614 74.1189 71.8215 71.6549 71.0444C71.311 70.9422 71.0106 70.7292 70.8003 70.4385C70.59 70.1478 70.4817 69.7958 70.4923 69.4372C70.5802 65.2018 70.9319 50.8737 71.6159 44.9285C72.417 37.9037 74.1122 34.6698 75.3188 33.9956C76.282 33.5326 77.2972 33.1866 78.3427 32.9649C78.4305 32.9435 78.5223 32.9442 78.6097 32.967C78.6972 32.9897 78.7777 33.0338 78.844 33.0952C78.9103 33.1567 78.9603 33.2336 78.9896 33.3191C79.0189 33.4046 79.0266 33.4961 79.0119 33.5853Z" fill="#407BFF"/>
  <path opacity="0.7" d="M79.0119 33.5853C78.3036 37.6985 76.5694 54.9088 79.2855 71.7478C76.7209 72.0614 74.1189 71.8215 71.6549 71.0444C71.311 70.9422 71.0106 70.7292 70.8003 70.4385C70.59 70.1478 70.4817 69.7958 70.4923 69.4372C70.5802 65.2018 70.9319 50.8737 71.6159 44.9285C72.417 37.9037 74.1122 34.6698 75.3188 33.9956C76.282 33.5326 77.2972 33.1866 78.3427 32.9649C78.4305 32.9435 78.5223 32.9442 78.6097 32.967C78.6972 32.9897 78.7777 33.0338 78.844 33.0952C78.9103 33.1567 78.9603 33.2336 78.9896 33.3191C79.0189 33.4046 79.0266 33.4961 79.0119 33.5853Z" fill="white"/>
  <path d="M43.4776 30.146C43.2943 28.8122 42.7326 27.5588 41.859 26.5342C40.9854 25.5097 39.8365 24.757 38.5483 24.3653C37.2602 23.9736 35.8868 23.9592 34.5907 24.3239C33.2946 24.6886 32.1302 25.4171 31.2354 26.4231C30.3405 27.4291 29.7527 28.6705 29.5416 30.0002C29.3305 31.33 29.5048 32.6924 30.044 33.9261C30.5833 35.1598 31.4647 36.2131 32.5841 36.9613C33.7035 37.7096 35.0138 38.1213 36.3599 38.1479C37.8743 42.3246 37.2246 49.6279 37.5617 51.7822C37.9525 54.2981 39.6623 53.9317 39.6623 53.9317C39.6623 53.9317 41.4112 53.8193 41.1278 51.2937C40.864 49.1247 38.2554 42.2758 38.5729 37.845C40.1718 37.3537 41.5436 36.309 42.4423 34.8983C43.341 33.4875 43.7081 31.8028 43.4776 30.146Z" fill="#407BFF"/>
  <path opacity="0.7" d="M43.4776 30.146C43.2943 28.8122 42.7326 27.5588 41.859 26.5342C40.9854 25.5097 39.8365 24.757 38.5483 24.3653C37.2602 23.9736 35.8868 23.9592 34.5907 24.3239C33.2946 24.6886 32.1302 25.4171 31.2354 26.4231C30.3405 27.4291 29.7527 28.6705 29.5416 30.0002C29.3305 31.33 29.5048 32.6924 30.044 33.9261C30.5833 35.1598 31.4647 36.2131 32.5841 36.9613C33.7035 37.7096 35.0138 38.1213 36.3599 38.1479C37.8743 42.3246 37.2246 49.6279 37.5617 51.7822C37.9525 54.2981 39.6623 53.9317 39.6623 53.9317C39.6623 53.9317 41.4112 53.8193 41.1278 51.2937C40.864 49.1247 38.2554 42.2758 38.5729 37.845C40.1718 37.3537 41.5436 36.309 42.4423 34.8983C43.341 33.4875 43.7081 31.8028 43.4776 30.146Z" fill="white"/>
  <path d="M40.0335 31.3051C40.1384 29.3492 38.6379 27.6786 36.682 27.5737C34.726 27.4688 33.0554 28.9693 32.9505 30.9252C32.8456 32.8812 34.3461 34.5518 36.3021 34.6567C38.258 34.7616 39.9286 33.261 40.0335 31.3051Z" fill="#407BFF"/>
  <path d="M82.8663 15.7008C80.7803 15.5445 78.1033 16.0477 79.6567 17.1664C81.2102 18.2851 81.8453 15.7448 85.8266 18.5244C89.808 21.3041 92.9101 19.6431 92.9101 19.6431C92.9101 19.6431 88.362 16.121 82.8663 15.7008Z" fill="#407BFF"/>
  <path d="M82.1531 15.9352C82.3387 14.8507 84.791 11.7535 86.1833 11.475C88.6991 10.9865 92.7977 12.9406 94.3365 14.0397C96.0268 15.2463 95.7532 17.8941 94.6883 20.2878C89.6224 19.2375 82.1531 15.9352 82.1531 15.9352Z" fill="#407BFF"/>
  <path opacity="0.1" d="M82.1531 15.9352C82.3387 14.8507 84.791 11.7535 86.1833 11.475C88.6991 10.9865 92.7977 12.9406 94.3365 14.0397C96.0268 15.2463 95.7532 17.8941 94.6883 20.2878C89.6224 19.2375 82.1531 15.9352 82.1531 15.9352Z" fill="white"/>
  <path d="M61.66 176.47H57.6982V97.6438C57.6982 97.1256 57.904 96.6285 58.2705 96.2621C58.6369 95.8956 59.134 95.6898 59.6522 95.6898C60.1736 95.6884 60.6744 95.893 61.0458 96.2589C61.4172 96.6248 61.6291 97.1225 61.6356 97.6438L61.66 176.47Z" fill="#407BFF"/>
  <path opacity="0.7" d="M61.66 176.47H57.6982V97.6438C57.6982 97.1256 57.904 96.6285 58.2705 96.2621C58.6369 95.8956 59.134 95.6898 59.6522 95.6898C60.1736 95.6884 60.6744 95.893 61.0458 96.2589C61.4172 96.6248 61.6291 97.1225 61.6356 97.6438L61.66 176.47Z" fill="white"/>
  <path d="M183.617 95.6653C183.877 95.6653 184.134 95.7165 184.374 95.8159C184.614 95.9153 184.832 96.0611 185.016 96.2448C185.2 96.4285 185.345 96.6466 185.445 96.8866C185.544 97.1267 185.595 97.3839 185.595 97.6438V176.47H181.634V97.6438C181.634 97.3835 181.685 97.1259 181.785 96.8855C181.884 96.6451 182.031 96.4268 182.215 96.243C182.399 96.0593 182.618 95.9136 182.858 95.8145C183.099 95.7153 183.357 95.6646 183.617 95.6653Z" fill="#407BFF"/>
  <path opacity="0.7" d="M183.617 95.6653C183.877 95.6653 184.134 95.7165 184.374 95.8159C184.614 95.9153 184.832 96.0611 185.016 96.2448C185.2 96.4285 185.345 96.6466 185.445 96.8866C185.544 97.1267 185.595 97.3839 185.595 97.6438V176.47H181.634V97.6438C181.634 97.3835 181.685 97.1259 181.785 96.8855C181.884 96.6451 182.031 96.4268 182.215 96.243C182.399 96.0593 182.618 95.9136 182.858 95.8145C183.099 95.7153 183.357 95.6646 183.617 95.6653Z" fill="white"/>
  <path d="M189.557 103.022H53.7363V122.367H189.557V103.022Z" fill="#407BFF"/>
  <path opacity="0.3" d="M189.557 103.022H53.7363V122.367H189.557V103.022Z" fill="white"/>
  <path d="M189.557 122.367H190.52V103.022H189.557V122.367Z" fill="#407BFF"/>
  <g opacity="0.6">
    <path opacity="0.6" d="M75.4458 122.367H61.66L68.5871 103.022H82.3778L75.4458 122.367Z" fill="white"/>
    <path opacity="0.6" d="M100.262 122.367H86.4715L93.4035 103.022H107.189L100.262 122.367Z" fill="white"/>
    <path opacity="0.6" d="M125.074 122.367H111.288L118.22 103.022H132.006L125.074 122.367Z" fill="white"/>
    <path opacity="0.6" d="M149.89 122.367H136.104L143.031 103.022H156.822L149.89 122.367Z" fill="white"/>
    <path opacity="0.6" d="M174.707 122.367H160.916L167.848 103.022H181.634L174.707 122.367Z" fill="white"/>
  </g>
  <path opacity="0.5" d="M61.66 122.367H57.6982V124.263H61.66V122.367Z" fill="#407BFF"/>
  <path opacity="0.5" d="M185.595 122.367H181.634V124.263H185.595V122.367Z" fill="#407BFF"/>
  <path d="M143.652 96.6277C142.989 95.5809 142.251 94.5833 141.444 93.6429L141.815 93.3253C142.636 94.2845 143.387 95.3016 144.062 96.3688L143.652 96.6277Z" fill="#407BFF"/>
  <path d="M139.172 91.298C136.779 89.1087 133.997 87.3872 130.97 86.2223L131.146 85.768C134.23 86.9542 137.065 88.7072 139.504 90.9365L139.172 91.298Z" fill="#407BFF"/>
  <path d="M121.639 135.351C135.344 135.351 146.455 124.241 146.455 110.535C146.455 96.8292 135.344 85.7185 121.639 85.7185C107.933 85.7185 96.8223 96.8292 96.8223 110.535C96.8223 124.241 107.933 135.351 121.639 135.351Z" fill="#407BFF"/>
  <path d="M121.64 87.1505C126.265 87.1496 130.787 88.5203 134.633 91.0893C138.479 93.6583 141.477 97.3102 143.248 101.583C145.019 105.856 145.482 110.558 144.581 115.095C143.679 119.631 141.452 123.799 138.182 127.07C134.912 130.341 130.745 132.568 126.208 133.471C121.672 134.374 116.97 133.911 112.696 132.141C108.423 130.371 104.771 127.374 102.201 123.528C99.631 119.682 98.2593 115.161 98.2593 110.536C98.2658 104.336 100.731 98.3927 105.114 94.0087C109.497 89.6247 115.44 87.1583 121.64 87.1505ZM121.64 86.579C116.905 86.579 112.277 87.9829 108.341 90.6131C104.404 93.2433 101.336 96.9818 99.5245 101.356C97.7128 105.73 97.2387 110.543 98.1624 115.186C99.086 119.829 101.366 124.094 104.713 127.442C108.061 130.79 112.326 133.07 116.97 133.993C121.613 134.917 126.426 134.443 130.8 132.631C135.174 130.819 138.912 127.751 141.542 123.815C144.173 119.878 145.577 115.25 145.577 110.516C145.577 104.168 143.055 98.0791 138.566 93.59C134.076 89.1009 127.988 86.579 121.64 86.579Z" fill="white"/>
  <path d="M133.399 107.921H110.152C109.734 107.921 109.394 108.18 109.394 108.501V112.844C109.394 113.164 109.734 113.424 110.152 113.424H133.399C133.818 113.424 134.158 113.164 134.158 112.844V108.501C134.158 108.18 133.818 107.921 133.399 107.921Z" fill="white"/>
  <path d="M124.527 122.296L124.527 99.0487C124.527 98.63 124.268 98.2906 123.948 98.2906L119.604 98.2906C119.284 98.2906 119.025 98.63 119.025 99.0487L119.025 122.296C119.025 122.714 119.284 123.054 119.604 123.054L123.948 123.054C124.268 123.054 124.527 122.714 124.527 122.296Z" fill="white"/>
</svg>
